<?xml version="1.0" encoding="UTF-8" standalone="no"?> <svg id="Layer_1" data-name="Layer 1" xmlns="http://www.w3.org/2000/svg" viewBox="0 0 24 24"><title>align2</title><path d="M21,11H19.47V4.5a1,1,0,0,0-1-1H13.53a1,1,0,0,0-1,1V11H11.47V6.53a1,1,0,0,0-1-1H5.53a1,1,0,0,0-1,1V11H3a1,1,0,0,0,0,2H4.53v4.47a1,1,0,0,0,1,1h4.94a1,1,0,0,0,1-1V13h1.06v6.5a1,1,0,0,0,1,1h4.94a1,1,0,0,0,1-1V13H21a1,1,0,0,0,0-2ZM6.53,7.53H9.47V11H6.53Zm2.94,8.94H6.53V13H9.47Zm5.06-11h2.94V11H14.53Zm2.94,13H14.53V13h2.94Z"/></svg>