<?xml version="1.0" encoding="UTF-8" standalone="no"?> <svg id="Layer_1" data-name="Layer 1" xmlns="http://www.w3.org/2000/svg" viewBox="0 0 24 24"><title>align3</title><path d="M19.5,4.53H13V3a1,1,0,0,0-2,0V4.53H4.5a1,1,0,0,0-1,1v4.94a1,1,0,0,0,1,1H11v1.06H6.53a1,1,0,0,0-1,1v4.94a1,1,0,0,0,1,1H11V21a1,1,0,0,0,2,0V19.47h4.47a1,1,0,0,0,1-1V13.53a1,1,0,0,0-1-1H13V11.47h6.5a1,1,0,0,0,1-1V5.53A1,1,0,0,0,19.5,4.53Zm-12,12.94V14.53H11v2.94Zm8.94-2.94v2.94H13V14.53ZM5.5,9.47V6.53H11V9.47Zm13,0H13V6.53h5.5Z"/></svg>