<?xml version="1.0" encoding="UTF-8" standalone="no"?> <svg width="24" height="24" viewBox="0 0 24 24" fill="none" xmlns="http://www.w3.org/2000/svg">
<path fill-rule="evenodd" clip-rule="evenodd" d="M1 2C1 1.44772 1.44772 1 2 1H22C22.5523 1 23 1.44772 23 2C23 2.55228 22.5523 3 22 3H2C1.44772 3 1 2.55228 1 2ZM10.0675 6.36572C10.5954 4.38615 13.4046 4.38615 13.9325 6.36572L16.9662 17.7423C17.1085 18.276 16.7913 18.8239 16.2577 18.9662C15.724 19.1085 15.1761 18.7913 15.0338 18.2577L14.2317 15.25H9.76828L8.96624 18.2577C8.82393 18.7913 8.27597 19.1085 7.74234 18.9662C7.2087 18.8239 6.89146 18.276 7.03376 17.7423L10.0675 6.36572ZM10.3016 13.25H13.6984L12 6.88104L10.3016 13.25ZM1 22C1 21.4477 1.44772 21 2 21H22C22.5523 21 23 21.4477 23 22C23 22.5523 22.5523 23 22 23H2C1.44772 23 1 22.5523 1 22Z" fill="#293644"/>
</svg>
